<?xml version="1.0" encoding="UTF-8"?>
<svg width="321px" height="188px" viewBox="0 0 321 188" version="1.1" xmlns="http://www.w3.org/2000/svg" xmlns:xlink="http://www.w3.org/1999/xlink">
    <title>letters</title>
    <g id="Logo-overlay" stroke="none" stroke-width="1" fill="none" fill-rule="evenodd">
        <g id="Full-HD-Copy-17" transform="translate(-946.000000, -465.000000)" fill="#363834">
            <g id="letters" transform="translate(947.218132, 465.345500)">
                <path d="M71.7818684,123.515412 C70.0284474,123.91165 58.4199462,125.149337 54.0916021,124.438483 C36.4572804,121.546093 27.9698981,112.448942 27.7858699,96.6276145 C27.5900638,79.767461 34.5507479,67.5286012 55.2075494,66.6619231 C58.711447,66.5150034 70.2610591,68.582268 71.6788126,69.9104819 L71.7818684,123.515412 Z M98.7818684,143.574497 L98.7818684,0.6545 L71.7731888,0.6545 L71.7731888,47.5214183 C69.2583007,46.0663804 58.2138868,44.1042838 49.5432421,44.3438507 C20.6643651,45.1375077 -0.793141148,67.6935349 -0.20638345,95.246662 C0.561600677,131.280162 22.032476,146.396389 55.6989988,148.506929 C72.9437332,149.588654 93.6362262,144.396079 98.7818684,143.574497 L98.7818684,143.574497 Z" id="Fill-4"></path>
                <path d="M291.781868,123.515412 C290.028447,123.91165 278.419946,125.149337 274.093074,124.438483 C256.458753,121.546093 247.969898,112.448942 247.78587,96.6276145 C247.590064,79.767461 254.550748,67.5286012 275.207549,66.6619231 C278.711447,66.5150034 290.261059,68.582268 291.680285,69.9104819 L291.781868,123.515412 Z M318.781868,143.574497 L318.781868,0.6545 L291.774674,0.6545 L291.774674,47.5214183 C289.258301,46.0663804 278.215372,44.1042838 269.544728,44.3438507 C240.664365,45.1375077 219.206859,67.6935349 219.793617,95.246662 C220.561601,131.280162 242.033962,146.396389 275.698999,148.506929 C292.943733,149.588654 313.636226,144.396079 318.781868,143.574497 L318.781868,143.574497 Z" id="Fill-5"></path>
                <path d="M113.387251,51.3175339 L113.387251,187 L140.53572,187 L140.433919,68.9996128 C142.191097,68.6028804 153.738897,67.0412111 158.125202,67.3012417 C176.024513,68.3591946 184.168611,78.4216348 184.583193,94.2760702 C184.847286,104.406861 181.502599,112.812535 174.934207,118.054751 C169.985782,122.00573 163.101659,124.056257 155.136082,124.285084 L155.183294,148.016217 C167.68714,148.38026 180.337049,145.724976 190.363732,139.215296 C203.361831,130.776933 212.59771,112.063647 212.087228,94.2730984 C211.165116,62.1050879 193.175806,43.794478 156.570151,43.0158722 C139.411481,42.6503435 118.593868,48.693454 113.387251,51.3175339" id="Fill-6"></path>
            </g>
        </g>
    </g>
</svg>