<?xml version="1.0" encoding="UTF-8"?>
<svg width="138px" height="158px" viewBox="0 0 138 158" version="1.1" xmlns="http://www.w3.org/2000/svg" xmlns:xlink="http://www.w3.org/1999/xlink">
    <title>logo-dice</title>
    <g id="Logo-Animation" stroke="none" stroke-width="1" fill="none" fill-rule="evenodd">
        <g id="Keyframe5" transform="translate(-217.000000, -46.000000)" fill="#DC3545">
            <g id="Logo" transform="translate(216.999381, 46.793175)">
                <path d="M71.8119114,0.704812815 L129.954619,31.686 L86.9805951,56.4983419 C86.6702882,56.6774977 86.4795505,57.0089844 86.4805994,57.3672944 L86.4989573,63.6389995 C86.4999881,63.9911445 86.6861619,64.316791 86.9891,64.4963339 L92.4756631,67.7480671 C92.786516,67.932301 93.1725804,67.9345045 93.4855161,67.753831 L137.500619,42.341 L137.500619,114.740599 C137.500619,116.885331 136.355821,118.866964 134.497859,119.938344 L71.9869899,155.984757 C70.1378185,157.051068 67.8613659,157.054644 66.0088538,155.994148 L3.01972316,119.935153 C1.15255893,118.866269 0.000619427528,116.879485 0.000619427528,114.728017 L1.42108547e-14,44.067 L62.513,80.16 L62.5133368,125.933677 C62.5133368,126.291988 62.7050439,126.622915 63.0158739,126.801162 L68.4565088,129.921116 C68.7619907,130.096296 69.1370957,130.097888 69.4440535,129.925307 L75.0034186,126.799671 C75.3183962,126.622581 75.5133368,126.289342 75.5133368,125.927995 L75.5133368,73.5129802 C75.5133368,73.3198025 75.4585609,73.1394185 75.3636936,72.9865125 C75.3157882,72.7031635 75.1464516,72.4428398 74.8782501,72.2879936 L74.8782501,72.2879936 L6.012,32.527 L66.184828,0.696337962 C67.9456355,-0.235103672 70.0539176,-0.231928424 71.8119114,0.704812815 Z" id="logo-dice"></path>
            </g>
        </g>
    </g>
</svg>